PathFileType	4	(x/y/z)	S02_M20_T09
DataRate	CameraRate	NumFrames	NumMarkers	Units	OrigDataRate	OrigDataStartFrame	OrigNumFrames
240	240	8	51	mm	240	397	453
Frame#	Time	Sternum			R.Acromium			L.Acromium			Top.Head			R.ASIS			L.ASIS			R.PSIS			L.PSIS			R.Great.Tro			L.Great.Tro			R.Iliac.Crest			L.Iliac.Crest			V.Sacral			R.Thigh.Upper.Post			R.Thigh.Lower.Ant			R.Thigh.Lower.Post			R.Thigh.Upper.Ant			R.Knee.Lat			R.Knee.Med			R.Shank.Upper.Post			R.Shank.Lower.Ant			R.Shank.Lower.Post			R.Shank.Upper.Ant			R.Ankle.Lat			R.Ankle.Med			R.Heel.Upper			R.Heel.Med			R.Heel.Lat			R.Toe.Lat			R.Toe.Med			R.Toe.Tip			L.Thigh.Upper.Post			L.Thigh.Lower.Ant			L.Thigh.Lower.Post			L.Thigh.Upper.Ant			L.Knee.Lat			L.Knee.Med			L.Shank.Upper.Post			L.Shank.Lower.Ant			L.Shank.Lower.Post			L.Shank.Upper.Ant			L.Ankle.Lat			L.Ankle.Med			L.Heel.Upper			L.Heel.Med			L.Heel.Lat			L.Toe.Lat			L.Toe.Med			L.Toe.Tip			Cervical.Spine			Back			
		X1	Y1	Z1	X2	Y2	Z2	X3	Y3	Z3	X4	Y4	Z4	X5	Y5	Z5	X6	Y6	Z6	X7	Y7	Z7	X8	Y8	Z8	X9	Y9	Z9	X10	Y10	Z10	X11	Y11	Z11	X12	Y12	Z12	X13	Y13	Z13	X14	Y14	Z14	X15	Y15	Z15	X16	Y16	Z16	X17	Y17	Z17	X18	Y18	Z18	X19	Y19	Z19	X20	Y20	Z20	X21	Y21	Z21	X22	Y22	Z22	X23	Y23	Z23	X24	Y24	Z24	X25	Y25	Z25	X26	Y26	Z26	X27	Y27	Z27	X28	Y28	Z28	X29	Y29	Z29	X30	Y30	Z30	X31	Y31	Z31	X32	Y32	Z32	X33	Y33	Z33	X34	Y34	Z34	X35	Y35	Z35	X36	Y36	Z36	X37	Y37	Z37	X38	Y38	Z38	X39	Y39	Z39	X40	Y40	Z40	X41	Y41	Z41	X42	Y42	Z42	X43	Y43	Z43	X44	Y44	Z44	X45	Y45	Z45	X46	Y46	Z46	X47	Y47	Z47	X48	Y48	Z48	X49	Y49	Z49	X50	Y50	Z50	X51	Y51	Z51	

397	1.65	638.49	1119.1	288.48	523.63	1356.2	422.07	541.13	1351.6	128.83	571.65	1634.1	285.36	610.47	940.82	389.4	608.43	923.63	176.18	400.78	982.03	342.33	391.45	987.03	268.78	551.39	830.31	491.41	474.66	846.89	100.3	513.79	992.16	450.73	485.53	978.93	116.27	369.18	937.47	300.4	639.08	642.85	485.75	717.73	589.29	448.39	656.73	555.24	468.96	695.53	675.35	462.22	697.06	489.58	453.64	695.2	471.22	312.67	613.48	286.35	439.5	686.97	204.63	434.2	620.47	213.46	433.83	684.25	273.66	447.38	637.16	116.51	427.28	657.53	128.24	346.54	585.59	97.803	363.3	603.97	66.665	337.58	583.95	65.806	398.4	735.03	62.023	465.89	783.32	60.812	367.18	819.5	90.433	429.12	430.72	621.23	135.88	498.44	534.32	142.19	421.34	533.64	160.41	500.64	627.1	118.7	472.89	455.92	157.26	469.84	458.45	295.24	365.23	299.99	162.88	418.71	203.85	184.66	351.13	228.88	181.67	426.39	277.91	166.36	359.85	108.21	197.73	362.15	107.42	281.28	292.53	83.243	231.3	297.55	56.944	265.2	296.52	55.364	203.07	461.95	34.894	181.8	478.69	43.848	291.97	542.62	54.333	248.69	457.5	1409.4	271.77	377.71	1159.9	277.6
398	1.6542	643.19	1118.7	288.72	528.16	1355.8	422.27	546.2	1351.3	129.14	576.68	1633.6	285.88	615.65	940.57	389.54	612.99	923.12	176.3	405.77	981.57	342.88	396.15	986.57	269.37	557.2	830.32	491.7	478.54	846.81	100.73	518.91	991.86	450.96	489.93	978.38	116.63	374.01	936.97	301.08	645.27	642.9	485.65	723.59	589.36	447.56	662.91	555.26	469	701.31	675.43	461.3	703.38	489.64	453.32	700.7	470.94	312.24	624.89	284.39	440.04	700.63	204.72	434.52	633.88	211.67	434.41	696.06	273.69	447.6	653.25	115.14	427.94	672.93	127.22	347.13	601.99	94.858	364.25	621.1	64.215	338.5	601.33	62.898	399.35	752.68	63.361	466.27	800.61	63.334	367.4	836.21	94.012	429.16	433.22	621.69	135.96	500.31	534.3	142.28	423.19	534.16	160.4	503.2	627.08	118.86	474.12	456.01	157.23	471.04	458.44	295.19	365.77	300.33	162.98	419.08	204.1	184.62	351.52	229.28	181.8	426.96	278.14	166.33	360.05	108.53	197.76	362.41	107.74	281.29	292.72	83.693	231.32	297.66	57.389	265.21	296.62	55.796	203.1	461.98	34.895	181.8	478.75	43.855	291.97	542.68	54.262	248.68	462.33	1409	271.92	382.4	1159.5	277.63
399	1.6583	647.91	1118.2	288.97	532.72	1355.3	422.47	551.28	1351	129.45	581.73	1633	286.41	620.85	940.25	389.68	617.57	922.58	176.42	410.77	981.06	343.45	400.87	986.07	269.99	562.99	830.25	491.97	482.43	846.7	101.15	524.04	991.5	451.21	494.33	977.78	117	378.85	936.42	301.77	651.4	642.86	485.56	729.38	589.33	446.76	669.02	555.18	469.05	707.04	675.41	460.38	709.63	489.61	453.03	706.12	470.54	311.82	636.27	282.5	440.61	714.19	204.94	434.82	647.24	210.01	435.01	707.79	273.79	447.81	669.27	113.96	428.61	688.22	126.39	347.72	618.33	92.129	365.21	638.13	62.004	339.43	618.66	60.227	400.32	770.21	64.902	466.57	817.68	66.064	367.51	852.72	97.762	429.08	435.76	622.14	136.03	502.2	534.27	142.38	425.06	534.66	160.4	505.79	627.03	119.01	475.38	456.09	157.21	472.23	458.43	295.14	366.33	300.68	163.08	419.46	204.36	184.57	351.91	229.68	181.93	427.54	278.36	166.3	360.26	108.84	197.79	362.67	108.06	281.31	292.9	84.14	231.34	297.78	57.831	265.22	296.73	56.225	203.13	462	34.894	181.8	478.8	43.863	291.97	542.74	54.193	248.66	467.17	1408.6	272.09	387.09	1159.2	277.7
400	1.6625	652.64	1117.6	289.22	537.32	1354.7	422.69	556.35	1350.7	129.77	586.78	1632.4	286.95	626.05	939.88	389.83	622.17	922.02	176.53	415.79	980.49	344.04	405.58	985.52	270.62	568.77	830.08	492.24	486.33	846.57	101.57	529.19	991.06	451.46	498.72	977.14	117.39	383.7	935.82	302.48	657.48	642.73	485.46	735.11	589.2	445.98	675.07	555.02	469.11	712.73	675.29	459.48	715.82	489.48	452.76	711.48	470.03	311.43	647.63	280.7	441.2	727.64	205.27	435.12	660.54	208.48	435.61	719.45	273.96	448.02	685.21	112.96	429.26	703.36	125.74	348.29	634.58	89.619	366.2	655.05	60.031	340.37	635.91	57.797	401.31	787.59	66.641	466.79	834.52	68.988	367.51	869	101.67	428.87	438.34	622.56	136.09	504.13	534.21	142.49	426.97	535.15	160.39	508.42	626.95	119.16	476.67	456.16	157.19	473.41	458.43	295.11	366.91	301.02	163.17	419.84	204.61	184.53	352.33	230.08	182.04	428.13	278.58	166.27	360.46	109.16	197.82	362.92	108.38	281.33	293.08	84.584	231.37	297.89	58.271	265.22	296.84	56.652	203.15	462.02	34.893	181.8	478.84	43.872	291.97	542.8	54.127	248.65	472.01	1408.1	272.27	391.8	1158.7	277.79
401	1.6667	657.38	1117	289.47	541.94	1354.1	422.9	561.42	1350.3	130.11	591.84	1631.8	287.51	631.28	939.45	389.99	626.78	921.43	176.65	420.83	979.87	344.65	410.31	984.92	271.28	574.54	829.82	492.49	490.24	846.42	101.99	534.35	990.55	451.74	503.11	976.45	117.79	388.56	935.17	303.21	663.5	642.52	485.37	740.79	588.97	445.23	681.05	554.77	469.16	718.36	675.07	458.6	721.94	489.28	452.51	716.78	469.42	311.06	658.94	278.98	441.82	740.97	205.72	435.4	673.78	207.08	436.22	731.01	274.21	448.22	701.05	112.15	429.91	718.36	125.27	348.84	650.74	87.329	367.21	671.84	58.293	341.31	653.07	55.61	402.31	804.82	68.574	466.93	851.11	72.094	367.41	885.05	105.74	428.55	440.96	622.95	136.14	506.07	534.13	142.6	428.91	535.63	160.39	511.08	626.84	119.3	478	456.23	157.18	474.59	458.44	295.1	367.52	301.37	163.25	420.23	204.86	184.48	352.76	230.49	182.15	428.74	278.8	166.24	360.67	109.47	197.86	363.17	108.7	281.35	293.26	85.024	231.39	298.01	58.707	265.24	296.95	57.077	203.18	462.05	34.89	181.8	478.89	43.883	291.97	542.85	54.063	248.64	476.88	1407.6	272.48	396.51	1158.2	277.91
402	1.6708	662.14	1116.2	289.72	546.6	1353.4	423.13	566.49	1349.8	130.46	596.91	1631	288.07	636.52	938.97	390.14	631.4	920.82	176.76	425.88	979.2	345.27	415.04	984.28	271.96	580.29	829.47	492.72	494.17	846.25	102.39	539.54	989.97	452.03	507.48	975.72	118.21	393.43	934.48	303.95	669.46	642.22	485.27	746.41	588.64	444.5	686.96	554.44	469.22	723.95	674.76	457.75	728.02	488.99	452.29	722.03	468.72	310.72	670.21	277.35	442.45	754.18	206.29	435.67	686.93	205.82	436.83	742.47	274.53	448.43	716.77	111.53	430.55	733.2	124.97	349.38	666.77	85.259	368.23	688.48	56.787	342.25	670.12	53.668	403.31	821.86	70.694	466.99	867.44	75.368	367.21	900.86	109.93	428.12	443.6	623.33	136.19	508.04	534.03	142.71	430.88	536.09	160.4	513.77	626.71	119.44	479.36	456.28	157.18	475.77	458.44	295.1	368.15	301.73	163.32	420.63	205.1	184.44	353.21	230.91	182.24	429.36	279.01	166.21	360.88	109.78	197.9	363.41	109.02	281.37	293.45	85.461	231.41	298.12	59.142	265.25	297.06	57.5	203.21	462.07	34.886	181.8	478.93	43.896	291.96	542.89	54.001	248.63	481.75	1407	272.7	401.23	1157.7	278.05
403	1.675	666.9	1115.5	289.97	551.29	1352.6	423.37	571.56	1349.3	130.82	601.98	1630.3	288.64	641.78	938.44	390.3	636.04	920.18	176.86	430.94	978.48	345.92	419.79	983.59	272.67	586.03	829.02	492.94	498.13	846.05	102.79	544.75	989.33	452.34	511.85	974.95	118.65	398.32	933.74	304.72	675.37	641.85	485.17	751.97	588.22	443.81	692.82	554.02	469.27	729.5	674.36	456.93	734.04	488.64	452.1	727.24	467.93	310.41	681.43	275.81	443.1	767.25	206.97	435.93	699.99	204.7	437.44	753.83	274.92	448.62	732.37	111.1	431.17	747.87	124.85	349.9	682.68	83.407	369.26	704.96	55.506	343.19	687.05	51.968	404.32	838.7	72.992	466.99	883.51	78.796	366.92	916.41	114.26	427.58	446.29	623.69	136.23	510.04	533.9	142.83	432.88	536.54	160.42	516.49	626.54	119.56	480.74	456.33	157.19	476.96	458.45	295.11	368.81	302.09	163.38	421.03	205.35	184.39	353.67	231.33	182.33	430	279.21	166.17	361.09	110.09	197.95	363.65	109.34	281.39	293.63	85.896	231.44	298.23	59.576	265.26	297.16	57.922	203.24	462.09	34.88	181.79	478.97	43.909	291.96	542.94	53.941	248.61	486.63	1406.4	272.94	405.96	1157.1	278.22
404	1.6792	671.68	1114.6	290.22	556	1351.8	423.61	576.63	1348.7	131.19	607.07	1629.4	289.23	647.06	937.85	390.45	640.68	919.53	176.96	436.03	977.7	346.6	424.54	982.85	273.4	591.76	828.49	493.15	502.11	845.84	103.17	549.98	988.63	452.66	516.21	974.14	119.1	403.22	932.95	305.5	681.23	641.39	485.08	757.5	587.71	443.15	698.62	553.52	469.31	735.01	673.88	456.14	740.02	488.23	451.93	732.41	467.06	310.12	692.58	274.37	443.75	780.17	207.76	436.17	712.95	203.71	438.04	765.07	275.39	448.81	747.81	110.84	431.77	762.37	124.88	350.39	698.45	81.77	370.29	721.26	54.445	344.12	703.83	50.507	405.33	855.33	75.457	466.91	899.3	82.36	366.56	931.69	118.69	426.96	449	624.02	136.28	512.06	533.76	142.94	434.9	536.98	160.45	519.24	626.34	119.68	482.15	456.36	157.2	478.17	458.46	295.13	369.5	302.46	163.44	421.44	205.59	184.34	354.16	231.76	182.4	430.66	279.41	166.14	361.31	110.41	198.01	363.89	109.66	281.41	293.82	86.329	231.47	298.34	60.009	265.28	297.27	58.343	203.26	462.11	34.873	181.79	479.01	43.923	291.95	542.98	53.881	248.6	491.53	1405.7	273.2	410.69	1156.5	278.42
